<svg width="48" height="55" viewBox="0 0 48 55" fill="none" xmlns="http://www.w3.org/2000/svg">
<g id="fa6-brands:square-x-twitter">
<path id="Vector" d="M6.85714 3.4375C3.075 3.4375 0 6.52051 0 10.3125V44.6875C0 48.4795 3.075 51.5625 6.85714 51.5625H41.1429C44.925 51.5625 48 48.4795 48 44.6875V10.3125C48 6.52051 44.925 3.4375 41.1429 3.4375H6.85714ZM38.6893 12.4609L27.5679 25.2012L40.65 42.5391H30.4071L22.3929 32.0225L13.2107 42.5391H8.12143L20.0143 28.9072L7.46786 12.4609H17.9679L25.2214 22.0752L33.6 12.4609H38.6893ZM34.6393 39.4883L16.4357 15.3506H13.4036L31.8107 39.4883H34.6286H34.6393Z" fill="#FECF5D"/>
</g>
</svg>
